<?xml version="1.0" encoding="UTF-8" standalone="no"?>
<!-- Created with Inkscape (http://www.inkscape.org/) -->

<svg
   version="1.1"
   id="svg1"
   width="225"
   height="225"
   viewBox="0 0 225 225"
   sodipodiDocname="maps.svg"
   inkscapeVersion="1.3.2 (091e20e, 2023-11-25, custom)"
   xmlnsInkscape="http://www.inkscape.org/namespaces/inkscape"
   xmlnsSodipodi="http://sodipodi.sourceforge.net/DTD/sodipodi-0.dtd"
   xmlns="http://www.w3.org/2000/svg"
   xmlnsSvg="http://www.w3.org/2000/svg">
  <defs
     id="defs1" />
  <sodipodiNamedview
     id="namedview1"
     pagecolor="#ffffff"
     bordercolor="#111111"
     borderopacity="1"
     inkscapeShowpageshadow="0"
     inkscapePageopacity="0"
     inkscapePagecheckerboard="1"
     inkscapeDeskcolor="#d1d1d1"
     inkscapeZoom="3.8266667"
     inkscapeCx="103.48432"
     inkscapeCy="118.51045"
     inkscapeWindow-width="1920"
     inkscapeWindow-height="1057"
     inkscapeWindow-x="-8"
     inkscapeWindow-y="379"
     inkscapeWindow-maximized="1"
     inkscapeCurrent-layer="g1" />
  <g
     inkscapeGroupmode="layer"
     inkscapeLabel="Image"
     id="g1">
    <path
       style="fill:#000000;stroke-width:0.999996"
       d="M 101.89136,215.53574 C 68.8054,189.12231 15.008216,129.53248 27.623768,70.242527 30.010497,59.025494 38.185806,42.509909 45.799115,33.525076 62.632068,13.659704 85.753537,3.1201546 112.50089,3.1201546 c 34.20712,0 62.35455,17.2366884 77.66672,47.5609384 11.27119,22.321456 12.00121,46.307091 2.26241,74.333457 -18.28744,52.6275 -62.41393,87.28889 -65.37507,89.66921 -0.39559,0.31799 -8.78415,5.86984 -12.18454,5.88359 -3.51822,0.0142 -7.1075,-0.34418 -12.97905,-5.03161 z m 29.16452,-91.16768 c 8.20191,-3.90432 16.97648,-13.7009 20.50491,-22.8932 C 164.81741,66.938646 125.04001,33.542563 92.60801,51.979609 68.495991,65.686887 63.618827,95.776958 82.322129,115.43917 c 12.717848,13.36988 31.987721,16.90045 48.733751,8.92889 z"
       id="path1"
       sodipodiNodetypes="ssssssssssssss" />
  </g>
</svg>
