<svg
   version="1.1"
   id="svg1"
   width="512"
   height="512"
   viewBox="0 0 512 512"
   sodipodiSocname="wps.svg"
   inkscapeVersion="1.3.2 (091e20e, 2023-11-25, custom)"
   xmlnsInkscape="http://www.inkscape.org/namespaces/inkscape"
   xmlnsSodipodi="http://sodipodi.sourceforge.net/DTD/sodipodi-0.dtd"
   xmlns="http://www.w3.org/2000/svg"
   xmlnsSvg="http://www.w3.org/2000/svg">
  <defs
     id="defs1" />
  <sodipodiNamedview
     id="namedview1"
     pagecolor="#ffffff"
     bordercolor="#111111"
     borderopacity="1"
     inkscapeShowpageshadow="0"
     inkscapePageopacity="0"
     inkscapePagecheckerboard="1"
     inkscapeDeskcolor="#d1d1d1"
     inkscapeZoom="1.6816406"
     inkscapeCx="255.70267"
     inkscapeCy="256"
     inkscapeWindow-width="1920"
     inkscapeWindow-height="1057"
     inkscapeWindow-x="-8"
     inkscapeWindow-y="379"
     inkscapeWindow-maximized="1"
     inkscapeCurrent-layer="g1" />
  <g
     inkscapeGroupmode="layer"
     inkscapeLabel="Image"
     id="g1">
    <path
       style="fill:#000000;stroke-width:0.999996"
       d="M 236.98496,505.22452 C 159.40321,498.75481 90.479441,458.01663 47.52514,393.24221 26.273055,361.19441 12.811861,324.3818 7.8147875,284.6455 6.0258273,270.41983 6.2747183,238.34142 8.2891531,223.50663 14.339447,178.95084 30.309149,140.44284 58.188673,103.18317 67.131146,91.231962 91.86388,66.510993 103.82077,57.572766 159.28086,16.11428 222.22265,-0.6905224 289.77357,7.9253121 341.6606,14.543285 391.54687,38.755611 430.58483,76.268128 518.57564,160.8206 531.86327,298.669 461.68334,398.8872 c -40.08865,57.24728 -103.39356,95.839 -171.90977,104.79902 -14.46302,1.89136 -39.72673,2.62756 -52.78861,1.5383 z m -88.68288,-102.12165 38.932,-9.20211 6.21037,2.78514 c 34.59754,15.51547 75.15986,17.41409 111.9883,5.2419 66.08332,-21.84126 109.72572,-85.23938 106.32495,-154.45517 -3.52132,-71.67092 -54.52781,-131.08222 -124.81993,-145.38774 -12.47152,-2.538144 -36.08451,-3.451116 -48.66717,-1.88167 -36.30686,4.52857 -68.28562,20.61179 -93.96106,47.25613 -16.47931,17.10139 -28.13096,36.50744 -35.53553,59.18537 -5.79945,17.76184 -7.39178,28.19062 -7.35414,48.16465 0.0451,23.93313 3.31751,40.23654 12.25762,61.06923 l 4.06624,9.47563 -8.405,40.65086 c -8.62042,41.69306 -8.78023,43.11293 -5.12678,45.55124 2.0211,1.34885 5.18768,0.7417 44.09013,-8.45346 z m 100.36617,-27.66851 c -15.88316,-1.20518 -30.37002,-5.15909 -45.99884,-12.55461 l -11.2551,-5.32582 -23.26519,5.50726 c -12.79583,3.029 -23.47815,5.29429 -23.73867,5.03399 -0.26038,-0.26028 1.72983,-11.12016 4.42292,-24.13305 l 4.89627,-23.65978 -4.27785,-8.53521 c -8.83474,-17.62765 -13.02015,-33.08693 -13.96382,-51.57748 -2.59331,-50.81352 27.57985,-98.32738 74.80128,-117.79073 19.54929,-8.05762 44.9857,-10.94657 65.78072,-7.47104 60.95994,10.18838 104.64492,64.14357 101.41852,125.26177 -2.9162,55.24374 -40.39569,99.96785 -94.27944,112.50338 -5.83415,1.35728 -25.62679,3.59801 -28.66867,3.24559 -0.80736,-0.0935 -3.44992,-0.32047 -5.87213,-0.50427 z m 62.18637,-46.81134 c 9.34028,-2.41843 17.90088,-9.29206 25.51487,-20.48685 4.75387,-6.98964 4.32452,-14.96797 -0.99259,-18.44675 -2.84024,-1.85822 -33.09999,-10.4242 -36.82411,-10.4242 -4.16545,0 -6.34602,1.30027 -13.34344,7.95688 -6.98472,6.64468 -9.40756,7.13349 -16.75504,3.3804 -15.19069,-7.75939 -43.56273,-33.51443 -48.59386,-44.11162 -2.29696,-4.83829 -1.88589,-7.60847 1.90686,-12.85127 6.4115,-8.86283 7.31967,-10.61739 7.32323,-14.14936 0.005,-4.26585 -12.72163,-33.51981 -16.05168,-36.89866 -3.29901,-3.34731 -9.35108,-3.89488 -13.65604,-1.23552 -5.27977,3.26148 -14.06154,13.3113 -17.46282,19.98418 -5.4171,10.6276 -4.95241,25.62927 1.29671,41.87111 9.87082,25.6549 45.4202,61.73741 75.73558,76.87164 8.30658,4.14687 17.88587,7.58764 25.01634,8.98568 7.14486,1.40087 20.61692,1.17756 26.88599,-0.44566 z"
       id="path1" />
  </g>
</svg>
